<mxfile host="Electron" agent="Mozilla/5.0 (Windows NT 10.0; Win64; x64) AppleWebKit/537.36 (KHTML, like Gecko) draw.io/26.2.15 Chrome/134.0.6998.205 Electron/35.2.1 Safari/537.36" version="26.2.15">
  <diagram name="PÃ¡gina-1" id="i5foJj5D6Uyqquw-NPgl">
    <mxGraphModel dx="2107" dy="2001" grid="0" gridSize="10" guides="1" tooltips="1" connect="1" arrows="1" fold="1" page="1" pageScale="1" pageWidth="827" pageHeight="1169" background="#ffffff" math="0" shadow="0">
      <root>
        <mxCell id="0" />
        <mxCell id="1" parent="0" />
        <mxCell id="TXLt6qXDOO3QCjM8LoSb-1" value="" style="rounded=1;whiteSpace=wrap;html=1;fillColor=none;fontColor=#ffffff;strokeColor=#FF0000;strokeWidth=5;" parent="1" vertex="1">
          <mxGeometry x="240" y="160" width="280" height="130" as="geometry" />
        </mxCell>
        <mxCell id="TXLt6qXDOO3QCjM8LoSb-4" value="" style="shape=mxgraph.cisco.switches.layer_3_switch;sketch=0;html=1;pointerEvents=1;dashed=0;strokeWidth=2;verticalLabelPosition=bottom;verticalAlign=top;align=center;outlineConnect=0;" parent="1" vertex="1">
          <mxGeometry x="260" y="193" width="64" height="64" as="geometry" />
        </mxCell>
        <mxCell id="TXLt6qXDOO3QCjM8LoSb-5" value="" style="shape=mxgraph.cisco.switches.layer_3_switch;html=1;pointerEvents=1;dashed=0;strokeWidth=2;verticalLabelPosition=bottom;verticalAlign=top;align=center;outlineConnect=0;fillColor=default;fillStyle=auto;shadow=0;" parent="1" vertex="1">
          <mxGeometry x="431" y="193" width="64" height="64" as="geometry" />
        </mxCell>
        <mxCell id="TXLt6qXDOO3QCjM8LoSb-6" value="" style="rounded=1;whiteSpace=wrap;html=1;fillColor=none;fontColor=#ffffff;strokeColor=#0000CC;strokeWidth=5;" parent="1" vertex="1">
          <mxGeometry x="240" y="350" width="280" height="214" as="geometry" />
        </mxCell>
        <mxCell id="TXLt6qXDOO3QCjM8LoSb-14" value="" style="edgeStyle=orthogonalEdgeStyle;rounded=0;orthogonalLoop=1;jettySize=auto;html=1;" parent="1" source="TXLt6qXDOO3QCjM8LoSb-7" target="TXLt6qXDOO3QCjM8LoSb-8" edge="1">
          <mxGeometry relative="1" as="geometry" />
        </mxCell>
        <mxCell id="TXLt6qXDOO3QCjM8LoSb-7" value="" style="sketch=0;points=[[0.015,0.015,0],[0.985,0.015,0],[0.985,0.985,0],[0.015,0.985,0],[0.25,0,0],[0.5,0,0],[0.75,0,0],[1,0.25,0],[1,0.5,0],[1,0.75,0],[0.75,1,0],[0.5,1,0],[0.25,1,0],[0,0.75,0],[0,0.5,0],[0,0.25,0]];verticalLabelPosition=bottom;html=1;verticalAlign=top;aspect=fixed;align=center;pointerEvents=1;shape=mxgraph.cisco19.rect;prIcon=l2_switch;" parent="1" vertex="1">
          <mxGeometry x="259" y="382.5" width="65" height="65" as="geometry" />
        </mxCell>
        <mxCell id="TXLt6qXDOO3QCjM8LoSb-8" value="" style="sketch=0;points=[[0.015,0.015,0],[0.985,0.015,0],[0.985,0.985,0],[0.015,0.985,0],[0.25,0,0],[0.5,0,0],[0.75,0,0],[1,0.25,0],[1,0.5,0],[1,0.75,0],[0.75,1,0],[0.5,1,0],[0.25,1,0],[0,0.75,0],[0,0.5,0],[0,0.25,0]];verticalLabelPosition=bottom;html=1;verticalAlign=top;aspect=fixed;align=center;pointerEvents=1;shape=mxgraph.cisco19.rect;prIcon=l2_switch;" parent="1" vertex="1">
          <mxGeometry x="430" y="382.5" width="65" height="65" as="geometry" />
        </mxCell>
        <mxCell id="TXLt6qXDOO3QCjM8LoSb-9" value="" style="rounded=1;whiteSpace=wrap;html=1;fillColor=none;fontColor=#ffffff;strokeColor=#0000CC;strokeWidth=5;" parent="1" vertex="1">
          <mxGeometry x="240" y="-30" width="280" height="130" as="geometry" />
        </mxCell>
        <mxCell id="TXLt6qXDOO3QCjM8LoSb-10" value="" style="sketch=0;points=[[0.015,0.015,0],[0.985,0.015,0],[0.985,0.985,0],[0.015,0.985,0],[0.25,0,0],[0.5,0,0],[0.75,0,0],[1,0.25,0],[1,0.5,0],[1,0.75,0],[0.75,1,0],[0.5,1,0],[0.25,1,0],[0,0.75,0],[0,0.5,0],[0,0.25,0]];verticalLabelPosition=bottom;html=1;verticalAlign=top;aspect=fixed;align=center;pointerEvents=1;shape=mxgraph.cisco19.rect;prIcon=l2_switch;" parent="1" vertex="1">
          <mxGeometry x="260" y="2.5" width="65" height="65" as="geometry" />
        </mxCell>
        <mxCell id="TXLt6qXDOO3QCjM8LoSb-11" value="" style="sketch=0;points=[[0.015,0.015,0],[0.985,0.015,0],[0.985,0.985,0],[0.015,0.985,0],[0.25,0,0],[0.5,0,0],[0.75,0,0],[1,0.25,0],[1,0.5,0],[1,0.75,0],[0.75,1,0],[0.5,1,0],[0.25,1,0],[0,0.75,0],[0,0.5,0],[0,0.25,0]];verticalLabelPosition=bottom;html=1;verticalAlign=top;aspect=fixed;align=center;pointerEvents=1;shape=mxgraph.cisco19.rect;prIcon=l2_switch;" parent="1" vertex="1">
          <mxGeometry x="430.5" y="2.5" width="65" height="65" as="geometry" />
        </mxCell>
        <mxCell id="TXLt6qXDOO3QCjM8LoSb-45" style="edgeStyle=orthogonalEdgeStyle;rounded=0;orthogonalLoop=1;jettySize=auto;html=1;exitX=0.5;exitY=0;exitDx=0;exitDy=0;exitPerimeter=0;entryX=0.5;entryY=1;entryDx=0;entryDy=0;entryPerimeter=0;strokeColor=#000000;strokeWidth=3;endArrow=none;startFill=0;" parent="1" source="TXLt6qXDOO3QCjM8LoSb-7" target="TXLt6qXDOO3QCjM8LoSb-4" edge="1">
          <mxGeometry relative="1" as="geometry" />
        </mxCell>
        <mxCell id="TXLt6qXDOO3QCjM8LoSb-49" style="edgeStyle=orthogonalEdgeStyle;rounded=0;orthogonalLoop=1;jettySize=auto;html=1;exitX=0;exitY=0.5;exitDx=0;exitDy=0;exitPerimeter=0;entryX=1;entryY=0.5;entryDx=0;entryDy=0;entryPerimeter=0;strokeColor=#000000;strokeWidth=3;curved=1;endArrow=none;startFill=0;" parent="1" source="TXLt6qXDOO3QCjM8LoSb-5" target="TXLt6qXDOO3QCjM8LoSb-10" edge="1">
          <mxGeometry relative="1" as="geometry">
            <Array as="points">
              <mxPoint x="400" y="225" />
              <mxPoint x="400" y="35" />
            </Array>
          </mxGeometry>
        </mxCell>
        <mxCell id="TXLt6qXDOO3QCjM8LoSb-50" style="edgeStyle=orthogonalEdgeStyle;rounded=0;orthogonalLoop=1;jettySize=auto;html=1;exitX=1;exitY=0.5;exitDx=0;exitDy=0;exitPerimeter=0;entryX=-0.009;entryY=0.714;entryDx=0;entryDy=0;entryPerimeter=0;curved=1;strokeWidth=3;strokeColor=#000000;endArrow=none;startFill=0;" parent="1" source="TXLt6qXDOO3QCjM8LoSb-7" target="TXLt6qXDOO3QCjM8LoSb-5" edge="1">
          <mxGeometry relative="1" as="geometry">
            <Array as="points">
              <mxPoint x="360" y="415" />
              <mxPoint x="360" y="239" />
            </Array>
          </mxGeometry>
        </mxCell>
        <mxCell id="TXLt6qXDOO3QCjM8LoSb-51" style="edgeStyle=orthogonalEdgeStyle;rounded=0;orthogonalLoop=1;jettySize=auto;html=1;exitX=0;exitY=0.5;exitDx=0;exitDy=0;exitPerimeter=0;entryX=1.003;entryY=0.742;entryDx=0;entryDy=0;entryPerimeter=0;strokeColor=#000000;strokeWidth=3;endArrow=none;startFill=0;curved=1;" parent="1" source="TXLt6qXDOO3QCjM8LoSb-8" target="TXLt6qXDOO3QCjM8LoSb-4" edge="1">
          <mxGeometry relative="1" as="geometry">
            <Array as="points">
              <mxPoint x="400" y="415" />
              <mxPoint x="400" y="241" />
            </Array>
          </mxGeometry>
        </mxCell>
        <mxCell id="TXLt6qXDOO3QCjM8LoSb-52" style="edgeStyle=orthogonalEdgeStyle;rounded=0;orthogonalLoop=1;jettySize=auto;html=1;exitX=0.5;exitY=0;exitDx=0;exitDy=0;exitPerimeter=0;entryX=0.5;entryY=1;entryDx=0;entryDy=0;entryPerimeter=0;strokeWidth=3;strokeColor=#000000;curved=1;endArrow=none;startFill=0;" parent="1" source="TXLt6qXDOO3QCjM8LoSb-8" target="TXLt6qXDOO3QCjM8LoSb-5" edge="1">
          <mxGeometry relative="1" as="geometry" />
        </mxCell>
        <mxCell id="TXLt6qXDOO3QCjM8LoSb-53" style="edgeStyle=orthogonalEdgeStyle;rounded=0;orthogonalLoop=1;jettySize=auto;html=1;exitX=0.5;exitY=0;exitDx=0;exitDy=0;exitPerimeter=0;entryX=0.5;entryY=1;entryDx=0;entryDy=0;entryPerimeter=0;endArrow=none;startFill=0;strokeWidth=3;strokeColor=#000000;" parent="1" source="TXLt6qXDOO3QCjM8LoSb-4" target="TXLt6qXDOO3QCjM8LoSb-10" edge="1">
          <mxGeometry relative="1" as="geometry" />
        </mxCell>
        <mxCell id="TXLt6qXDOO3QCjM8LoSb-54" style="edgeStyle=orthogonalEdgeStyle;rounded=0;orthogonalLoop=1;jettySize=auto;html=1;exitX=0.5;exitY=0;exitDx=0;exitDy=0;exitPerimeter=0;entryX=0.5;entryY=1;entryDx=0;entryDy=0;entryPerimeter=0;strokeColor=#000000;strokeWidth=3;endArrow=none;startFill=0;" parent="1" source="TXLt6qXDOO3QCjM8LoSb-5" target="TXLt6qXDOO3QCjM8LoSb-11" edge="1">
          <mxGeometry relative="1" as="geometry" />
        </mxCell>
        <mxCell id="TXLt6qXDOO3QCjM8LoSb-55" style="edgeStyle=orthogonalEdgeStyle;rounded=0;orthogonalLoop=1;jettySize=auto;html=1;exitX=1;exitY=0.5;exitDx=0;exitDy=0;exitPerimeter=0;entryX=0;entryY=0.5;entryDx=0;entryDy=0;entryPerimeter=0;curved=1;strokeWidth=3;endArrow=none;startFill=0;strokeColor=#000000;" parent="1" source="TXLt6qXDOO3QCjM8LoSb-4" target="TXLt6qXDOO3QCjM8LoSb-11" edge="1">
          <mxGeometry relative="1" as="geometry">
            <Array as="points">
              <mxPoint x="360" y="225" />
              <mxPoint x="360" y="35" />
            </Array>
          </mxGeometry>
        </mxCell>
        <mxCell id="TXLt6qXDOO3QCjM8LoSb-56" value="SPINE" style="text;html=1;align=center;verticalAlign=middle;resizable=0;points=[];autosize=1;strokeColor=none;fillColor=none;fontColor=#000000;fontSize=22;" parent="1" vertex="1">
          <mxGeometry x="160" y="155" width="90" height="40" as="geometry" />
        </mxCell>
        <mxCell id="TXLt6qXDOO3QCjM8LoSb-57" value="LEAF" style="text;html=1;align=center;verticalAlign=middle;resizable=0;points=[];autosize=1;strokeColor=none;fillColor=none;fontColor=#000000;fontSize=22;" parent="1" vertex="1">
          <mxGeometry x="165" y="-32.5" width="80" height="40" as="geometry" />
        </mxCell>
        <mxCell id="TXLt6qXDOO3QCjM8LoSb-58" value="LEAF" style="text;html=1;align=center;verticalAlign=middle;resizable=0;points=[];autosize=1;strokeColor=none;fillColor=none;fontColor=#000000;fontSize=22;" parent="1" vertex="1">
          <mxGeometry x="165" y="345" width="80" height="40" as="geometry" />
        </mxCell>
        <mxCell id="TXLt6qXDOO3QCjM8LoSb-78" value="" style="edgeStyle=orthogonalEdgeStyle;rounded=0;orthogonalLoop=1;jettySize=auto;html=1;fontColor=#000000;strokeColor=#000000;strokeWidth=3;endArrow=none;startFill=0;" parent="1" source="TXLt6qXDOO3QCjM8LoSb-79" target="TXLt6qXDOO3QCjM8LoSb-76" edge="1">
          <mxGeometry relative="1" as="geometry" />
        </mxCell>
        <mxCell id="TXLt6qXDOO3QCjM8LoSb-60" value="" style="shape=mxgraph.cisco.security.firewall;sketch=0;html=1;pointerEvents=1;dashed=0;fillColor=#000000;strokeColor=#ffffff;strokeWidth=2;verticalLabelPosition=bottom;verticalAlign=top;align=center;outlineConnect=0;rotation=0;" parent="1" vertex="1">
          <mxGeometry x="620" y="-180" width="50" height="97" as="geometry" />
        </mxCell>
        <mxCell id="TXLt6qXDOO3QCjM8LoSb-61" style="edgeStyle=orthogonalEdgeStyle;rounded=0;orthogonalLoop=1;jettySize=auto;html=1;exitX=1;exitY=0.5;exitDx=0;exitDy=0;exitPerimeter=0;strokeColor=#000000;strokeWidth=3;endArrow=none;startFill=0;" parent="1" source="TXLt6qXDOO3QCjM8LoSb-11" target="TXLt6qXDOO3QCjM8LoSb-60" edge="1">
          <mxGeometry relative="1" as="geometry">
            <Array as="points">
              <mxPoint x="640" y="35" />
            </Array>
          </mxGeometry>
        </mxCell>
        <mxCell id="TXLt6qXDOO3QCjM8LoSb-62" style="edgeStyle=orthogonalEdgeStyle;rounded=0;orthogonalLoop=1;jettySize=auto;html=1;exitX=0.5;exitY=0;exitDx=0;exitDy=0;exitPerimeter=0;entryX=0;entryY=1;entryDx=0;entryDy=0;entryPerimeter=0;curved=1;strokeColor=#000000;endArrow=none;startFill=0;strokeWidth=3;" parent="1" source="TXLt6qXDOO3QCjM8LoSb-10" target="TXLt6qXDOO3QCjM8LoSb-60" edge="1">
          <mxGeometry relative="1" as="geometry" />
        </mxCell>
        <mxCell id="TXLt6qXDOO3QCjM8LoSb-74" style="edgeStyle=orthogonalEdgeStyle;rounded=0;orthogonalLoop=1;jettySize=auto;html=1;exitX=0;exitY=0.5;exitDx=0;exitDy=0;exitPerimeter=0;strokeColor=#000000;strokeWidth=3;" parent="1" source="TXLt6qXDOO3QCjM8LoSb-63" edge="1">
          <mxGeometry relative="1" as="geometry">
            <mxPoint x="30" y="-163" as="targetPoint" />
            <Array as="points">
              <mxPoint x="254" y="-162" />
              <mxPoint x="40" y="-162" />
              <mxPoint x="40" y="-163" />
            </Array>
          </mxGeometry>
        </mxCell>
        <mxCell id="TXLt6qXDOO3QCjM8LoSb-63" value="" style="shape=mxgraph.cisco.routers.router;sketch=0;html=1;pointerEvents=1;dashed=0;fillColor=#000000;strokeColor=#ffffff;strokeWidth=2;verticalLabelPosition=bottom;verticalAlign=top;align=center;outlineConnect=0;" parent="1" vertex="1">
          <mxGeometry x="253.5" y="-190" width="78" height="53" as="geometry" />
        </mxCell>
        <mxCell id="TXLt6qXDOO3QCjM8LoSb-65" style="edgeStyle=orthogonalEdgeStyle;rounded=0;orthogonalLoop=1;jettySize=auto;html=1;exitX=0.5;exitY=1;exitDx=0;exitDy=0;exitPerimeter=0;entryX=0.5;entryY=0;entryDx=0;entryDy=0;entryPerimeter=0;strokeColor=#000000;strokeWidth=3;endArrow=none;startFill=0;" parent="1" source="TXLt6qXDOO3QCjM8LoSb-63" target="TXLt6qXDOO3QCjM8LoSb-10" edge="1">
          <mxGeometry relative="1" as="geometry" />
        </mxCell>
        <mxCell id="TXLt6qXDOO3QCjM8LoSb-66" style="edgeStyle=orthogonalEdgeStyle;rounded=0;orthogonalLoop=1;jettySize=auto;html=1;exitX=0.5;exitY=0;exitDx=0;exitDy=0;exitPerimeter=0;entryX=0.5;entryY=1;entryDx=0;entryDy=0;entryPerimeter=0;strokeColor=#000000;strokeWidth=3;endArrow=none;startFill=0;" parent="1" source="TXLt6qXDOO3QCjM8LoSb-11" target="TXLt6qXDOO3QCjM8LoSb-64" edge="1">
          <mxGeometry relative="1" as="geometry" />
        </mxCell>
        <mxCell id="TXLt6qXDOO3QCjM8LoSb-75" style="edgeStyle=orthogonalEdgeStyle;rounded=0;orthogonalLoop=1;jettySize=auto;html=1;exitX=0.5;exitY=0;exitDx=0;exitDy=0;exitPerimeter=0;strokeWidth=3;strokeColor=#000000;" parent="1" source="TXLt6qXDOO3QCjM8LoSb-64" edge="1">
          <mxGeometry relative="1" as="geometry">
            <mxPoint x="30" y="-240" as="targetPoint" />
            <Array as="points">
              <mxPoint x="462" y="-240" />
              <mxPoint x="40" y="-240" />
            </Array>
          </mxGeometry>
        </mxCell>
        <mxCell id="TXLt6qXDOO3QCjM8LoSb-64" value="" style="shape=mxgraph.cisco.routers.router;sketch=0;html=1;pointerEvents=1;dashed=0;fillColor=#000000;strokeColor=#ffffff;strokeWidth=2;verticalLabelPosition=bottom;verticalAlign=top;align=center;outlineConnect=0;" parent="1" vertex="1">
          <mxGeometry x="423.5" y="-190" width="78" height="53" as="geometry" />
        </mxCell>
        <mxCell id="TXLt6qXDOO3QCjM8LoSb-72" style="edgeStyle=orthogonalEdgeStyle;rounded=0;orthogonalLoop=1;jettySize=auto;html=1;exitX=0;exitY=0.5;exitDx=0;exitDy=0;exitPerimeter=0;entryX=1;entryY=0.5;entryDx=0;entryDy=0;entryPerimeter=0;strokeColor=#000000;curved=1;strokeWidth=3;endArrow=none;startFill=0;" parent="1" source="TXLt6qXDOO3QCjM8LoSb-11" target="TXLt6qXDOO3QCjM8LoSb-63" edge="1">
          <mxGeometry relative="1" as="geometry">
            <Array as="points">
              <mxPoint x="400" y="35" />
              <mxPoint x="400" y="-164" />
            </Array>
          </mxGeometry>
        </mxCell>
        <mxCell id="TXLt6qXDOO3QCjM8LoSb-73" style="edgeStyle=orthogonalEdgeStyle;rounded=0;orthogonalLoop=1;jettySize=auto;html=1;exitX=1;exitY=0.5;exitDx=0;exitDy=0;exitPerimeter=0;entryX=0;entryY=0.5;entryDx=0;entryDy=0;entryPerimeter=0;curved=1;strokeWidth=3;strokeColor=#000000;endArrow=none;startFill=0;" parent="1" source="TXLt6qXDOO3QCjM8LoSb-10" target="TXLt6qXDOO3QCjM8LoSb-64" edge="1">
          <mxGeometry relative="1" as="geometry">
            <Array as="points">
              <mxPoint x="360" y="35" />
              <mxPoint x="360" y="-163" />
            </Array>
          </mxGeometry>
        </mxCell>
        <mxCell id="TXLt6qXDOO3QCjM8LoSb-76" value="" style="verticalLabelPosition=bottom;sketch=0;html=1;fillColor=#282828;strokeColor=none;verticalAlign=top;pointerEvents=1;align=center;shape=mxgraph.cisco_safe.security_icons.icon11;" parent="1" vertex="1">
          <mxGeometry x="980" y="-173.25" width="80" height="83.5" as="geometry" />
        </mxCell>
        <mxCell id="TXLt6qXDOO3QCjM8LoSb-80" value="" style="edgeStyle=orthogonalEdgeStyle;rounded=0;orthogonalLoop=1;jettySize=auto;html=1;fontColor=#000000;strokeColor=#000000;strokeWidth=3;endArrow=none;startFill=0;" parent="1" source="TXLt6qXDOO3QCjM8LoSb-60" target="TXLt6qXDOO3QCjM8LoSb-79" edge="1">
          <mxGeometry relative="1" as="geometry">
            <mxPoint x="679" y="-131" as="sourcePoint" />
            <mxPoint x="990" y="-131" as="targetPoint" />
          </mxGeometry>
        </mxCell>
        <mxCell id="TXLt6qXDOO3QCjM8LoSb-79" value="" style="shape=mxgraph.cisco.routers.router;sketch=0;html=1;pointerEvents=1;dashed=0;fillColor=#000000;strokeColor=#ffffff;strokeWidth=2;verticalLabelPosition=bottom;verticalAlign=top;align=center;outlineConnect=0;" parent="1" vertex="1">
          <mxGeometry x="790" y="-158" width="78" height="53" as="geometry" />
        </mxCell>
        <mxCell id="TXLt6qXDOO3QCjM8LoSb-81" value="" style="points=[[0.22,0.185,0],[0.5,0,0],[0.78,0.185,0],[0.975,0.49,0],[1,0.73,0],[0.975,0.97,0],[0.5,1,0],[0.025,0.97,0],[0,0.73,0],[0.025,0.49,0]];verticalLabelPosition=bottom;sketch=0;html=1;verticalAlign=top;aspect=fixed;align=center;pointerEvents=1;shape=mxgraph.cisco19.printer;fillColor=#000000;strokeColor=none;" parent="1" vertex="1">
          <mxGeometry x="486" y="614.0000000000001" width="60" height="54" as="geometry" />
        </mxCell>
        <mxCell id="TXLt6qXDOO3QCjM8LoSb-82" value="" style="points=[[0.03,0.03,0],[0.5,0,0],[0.97,0.03,0],[1,0.4,0],[0.97,0.745,0],[0.5,1,0],[0.03,0.745,0],[0,0.4,0]];verticalLabelPosition=bottom;sketch=0;html=1;verticalAlign=top;aspect=fixed;align=center;pointerEvents=1;shape=mxgraph.cisco19.workstation;fillColor=#000000;strokeColor=none;" parent="1" vertex="1">
          <mxGeometry x="600" y="500.00000000000006" width="62.5" height="50" as="geometry" />
        </mxCell>
        <mxCell id="TXLt6qXDOO3QCjM8LoSb-83" value="" style="points=[[0.03,0.03,0],[0.5,0,0],[0.97,0.03,0],[1,0.4,0],[0.97,0.745,0],[0.5,1,0],[0.03,0.745,0],[0,0.4,0]];verticalLabelPosition=bottom;sketch=0;html=1;verticalAlign=top;aspect=fixed;align=center;pointerEvents=1;shape=mxgraph.cisco19.workstation;fillColor=#000000;strokeColor=none;" parent="1" vertex="1">
          <mxGeometry x="348.5" y="660.0000000000001" width="64" height="51.2" as="geometry" />
        </mxCell>
        <mxCell id="TXLt6qXDOO3QCjM8LoSb-86" style="edgeStyle=orthogonalEdgeStyle;rounded=0;orthogonalLoop=1;jettySize=auto;html=1;exitX=0.5;exitY=0;exitDx=0;exitDy=0;exitPerimeter=0;entryX=0.5;entryY=1;entryDx=0;entryDy=0;entryPerimeter=0;strokeColor=#000000;strokeWidth=3;endArrow=none;startFill=0;" parent="1" source="TXLt6qXDOO3QCjM8LoSb-83" target="R5beg2q50ziYNsdWSrL1-38" edge="1">
          <mxGeometry relative="1" as="geometry">
            <mxPoint x="476" y="641.2" as="targetPoint" />
          </mxGeometry>
        </mxCell>
        <mxCell id="R5beg2q50ziYNsdWSrL1-1" value="" style="sketch=0;aspect=fixed;pointerEvents=1;shadow=0;dashed=0;html=1;strokeColor=none;labelPosition=center;verticalLabelPosition=bottom;verticalAlign=top;align=center;fillColor=#000000;shape=mxgraph.mscae.enterprise.domain_controller" vertex="1" parent="1">
          <mxGeometry x="72" y="511.44" width="51" height="70.84" as="geometry" />
        </mxCell>
        <mxCell id="R5beg2q50ziYNsdWSrL1-2" value="" style="sketch=0;aspect=fixed;pointerEvents=1;shadow=0;dashed=0;html=1;strokeColor=none;labelPosition=center;verticalLabelPosition=bottom;verticalAlign=top;align=center;fillColor=#000000;shape=mxgraph.mscae.enterprise.web_server" vertex="1" parent="1">
          <mxGeometry x="152" y="571.44" width="53" height="69.76" as="geometry" />
        </mxCell>
        <mxCell id="R5beg2q50ziYNsdWSrL1-5" style="edgeStyle=orthogonalEdgeStyle;rounded=0;orthogonalLoop=1;jettySize=auto;html=1;exitX=0.337;exitY=0.023;exitDx=0;exitDy=0;exitPerimeter=0;entryX=0.25;entryY=1;entryDx=0;entryDy=0;entryPerimeter=0;strokeColor=#000000;strokeWidth=3;endArrow=none;startFill=0;" edge="1" parent="1" source="R5beg2q50ziYNsdWSrL1-1" target="TXLt6qXDOO3QCjM8LoSb-7">
          <mxGeometry relative="1" as="geometry">
            <Array as="points">
              <mxPoint x="89" y="490" />
              <mxPoint x="275" y="490" />
            </Array>
          </mxGeometry>
        </mxCell>
        <mxCell id="R5beg2q50ziYNsdWSrL1-6" style="edgeStyle=orthogonalEdgeStyle;rounded=0;orthogonalLoop=1;jettySize=auto;html=1;exitX=0.377;exitY=0;exitDx=0;exitDy=0;exitPerimeter=0;entryX=0.75;entryY=1;entryDx=0;entryDy=0;entryPerimeter=0;strokeWidth=3;strokeColor=#000000;endArrow=none;startFill=0;" edge="1" parent="1" source="R5beg2q50ziYNsdWSrL1-2" target="TXLt6qXDOO3QCjM8LoSb-7">
          <mxGeometry relative="1" as="geometry">
            <Array as="points">
              <mxPoint x="172" y="510" />
              <mxPoint x="308" y="510" />
            </Array>
          </mxGeometry>
        </mxCell>
        <mxCell id="R5beg2q50ziYNsdWSrL1-7" value="SRI" style="text;html=1;align=center;verticalAlign=middle;resizable=0;points=[];autosize=1;strokeColor=none;fillColor=none;fontColor=#000000;fontSize=22;" vertex="1" parent="1">
          <mxGeometry x="63" y="586.32" width="60" height="40" as="geometry" />
        </mxCell>
        <mxCell id="R5beg2q50ziYNsdWSrL1-8" value="WEB" style="text;html=1;align=center;verticalAlign=middle;resizable=0;points=[];autosize=1;strokeColor=none;fillColor=none;fontColor=#000000;fontSize=22;" vertex="1" parent="1">
          <mxGeometry x="135" y="650.14" width="70" height="40" as="geometry" />
        </mxCell>
        <mxCell id="R5beg2q50ziYNsdWSrL1-9" value="IT-USERS" style="text;html=1;align=center;verticalAlign=middle;resizable=0;points=[];autosize=1;strokeColor=none;fillColor=none;fontColor=#000000;fontSize=22;" vertex="1" parent="1">
          <mxGeometry x="320" y="719.0000000000001" width="120" height="40" as="geometry" />
        </mxCell>
        <mxCell id="R5beg2q50ziYNsdWSrL1-10" value="CORP" style="text;html=1;align=center;verticalAlign=middle;resizable=0;points=[];autosize=1;strokeColor=none;fillColor=none;fontColor=#000000;fontSize=22;" vertex="1" parent="1">
          <mxGeometry x="586.25" y="550" width="90" height="40" as="geometry" />
        </mxCell>
        <mxCell id="R5beg2q50ziYNsdWSrL1-11" value="PRINTER" style="text;html=1;align=center;verticalAlign=middle;resizable=0;points=[];autosize=1;strokeColor=none;fillColor=none;fontColor=#000000;fontSize=22;" vertex="1" parent="1">
          <mxGeometry x="456" y="674.0000000000001" width="120" height="40" as="geometry" />
        </mxCell>
        <mxCell id="R5beg2q50ziYNsdWSrL1-12" value="INTERNET" style="text;html=1;align=center;verticalAlign=middle;resizable=0;points=[];autosize=1;strokeColor=none;fillColor=none;fontColor=#000000;fontSize=22;" vertex="1" parent="1">
          <mxGeometry x="955" y="-220" width="130" height="40" as="geometry" />
        </mxCell>
        <mxCell id="R5beg2q50ziYNsdWSrL1-13" value="FIREWALL" style="text;html=1;align=center;verticalAlign=middle;resizable=0;points=[];autosize=1;strokeColor=none;fillColor=none;fontColor=#000000;fontSize=22;" vertex="1" parent="1">
          <mxGeometry x="580" y="-220" width="130" height="40" as="geometry" />
        </mxCell>
        <mxCell id="R5beg2q50ziYNsdWSrL1-18" value="&lt;h1 style=&quot;margin-top: 0px;&quot;&gt;&lt;font color=&quot;#000000&quot;&gt;VLAN&lt;/font&gt;&lt;/h1&gt;&lt;p&gt;&lt;font color=&quot;#000000&quot;&gt;10 Gestion: 192.168.10.0/24&lt;/font&gt;&lt;/p&gt;&lt;p&gt;&lt;font color=&quot;#000000&quot;&gt;20 Servers: 192.168.20.0/24&lt;/font&gt;&lt;/p&gt;&lt;p&gt;&lt;font color=&quot;#000000&quot;&gt;30 Corp_Users: 192.168.30.0/24&lt;/font&gt;&lt;/p&gt;&lt;p&gt;&lt;font color=&quot;#000000&quot;&gt;40 Impresoras: 192.68.40.0/24&lt;/font&gt;&lt;/p&gt;&lt;p&gt;&lt;font color=&quot;#000000&quot;&gt;50 IT-Users: 192.168.50.0/24&lt;/font&gt;&lt;/p&gt;&lt;p&gt;&lt;font color=&quot;#000000&quot;&gt;60 Transorte: 192.168.60.0/24&lt;/font&gt;&lt;/p&gt;&lt;p&gt;&lt;font color=&quot;#000000&quot;&gt;70 MGMT: 192.168.70.0/24&lt;/font&gt;&lt;/p&gt;" style="text;html=1;whiteSpace=wrap;overflow=hidden;rounded=0;fontSize=15;labelBorderColor=none;spacingBottom=0;spacingLeft=0;spacingRight=0;spacing=0;spacingTop=0;fontStyle=1;align=left;" vertex="1" parent="1">
          <mxGeometry x="855" y="82.5" width="250" height="302.5" as="geometry" />
        </mxCell>
        <mxCell id="R5beg2q50ziYNsdWSrL1-19" value="192.168.10.1" style="text;html=1;align=center;verticalAlign=middle;resizable=0;points=[];autosize=1;strokeColor=none;fillColor=none;fontColor=#000000;fontSize=14;fontStyle=1" vertex="1" parent="1">
          <mxGeometry x="173" y="-219" width="100" height="29" as="geometry" />
        </mxCell>
        <mxCell id="R5beg2q50ziYNsdWSrL1-20" value="192.168.10.2" style="text;html=1;align=center;verticalAlign=middle;resizable=0;points=[];autosize=1;strokeColor=none;fillColor=none;fontColor=#000000;fontSize=14;fontStyle=1" vertex="1" parent="1">
          <mxGeometry x="468" y="-224" width="100" height="29" as="geometry" />
        </mxCell>
        <mxCell id="R5beg2q50ziYNsdWSrL1-21" value="192.168.10.40" style="text;html=1;align=center;verticalAlign=middle;resizable=0;points=[];autosize=1;strokeColor=none;fillColor=none;fontColor=#000000;fontSize=14;fontStyle=1" vertex="1" parent="1">
          <mxGeometry x="132" y="2.5" width="108" height="29" as="geometry" />
        </mxCell>
        <mxCell id="R5beg2q50ziYNsdWSrL1-22" value="192.168.10.50" style="text;html=1;align=center;verticalAlign=middle;resizable=0;points=[];autosize=1;strokeColor=none;fillColor=none;fontColor=#000000;fontSize=14;fontStyle=1" vertex="1" parent="1">
          <mxGeometry x="516" width="108" height="29" as="geometry" />
        </mxCell>
        <mxCell id="R5beg2q50ziYNsdWSrL1-24" value="192.168.10.20" style="text;html=1;align=center;verticalAlign=middle;resizable=0;points=[];autosize=1;strokeColor=none;fillColor=none;fontColor=#000000;fontSize=14;fontStyle=1" vertex="1" parent="1">
          <mxGeometry x="131.5" y="217" width="108" height="29" as="geometry" />
        </mxCell>
        <mxCell id="R5beg2q50ziYNsdWSrL1-25" value="192.168.10.30" style="text;html=1;align=center;verticalAlign=middle;resizable=0;points=[];autosize=1;strokeColor=none;fillColor=none;fontColor=#000000;fontSize=14;fontStyle=1" vertex="1" parent="1">
          <mxGeometry x="516" y="210.5" width="108" height="29" as="geometry" />
        </mxCell>
        <mxCell id="R5beg2q50ziYNsdWSrL1-26" value="192.168.10.60" style="text;html=1;align=center;verticalAlign=middle;resizable=0;points=[];autosize=1;strokeColor=none;fillColor=none;fontColor=#000000;fontSize=14;fontStyle=1" vertex="1" parent="1">
          <mxGeometry x="132" y="400.5" width="108" height="29" as="geometry" />
        </mxCell>
        <mxCell id="R5beg2q50ziYNsdWSrL1-27" value="192.168.10.70" style="text;html=1;align=center;verticalAlign=middle;resizable=0;points=[];autosize=1;strokeColor=none;fillColor=none;fontColor=#000000;fontSize=14;fontStyle=1" vertex="1" parent="1">
          <mxGeometry x="516" y="400.5" width="108" height="29" as="geometry" />
        </mxCell>
        <mxCell id="R5beg2q50ziYNsdWSrL1-28" value="192.168.10.3" style="text;html=1;align=center;verticalAlign=middle;resizable=0;points=[];autosize=1;strokeColor=none;fillColor=none;fontColor=#000000;fontSize=14;fontStyle=1" vertex="1" parent="1">
          <mxGeometry x="777" y="-198" width="100" height="29" as="geometry" />
        </mxCell>
        <mxCell id="R5beg2q50ziYNsdWSrL1-29" value="R1" style="text;html=1;align=center;verticalAlign=middle;resizable=0;points=[];autosize=1;strokeColor=none;fillColor=none;fontColor=#000000;fontSize=16;fontStyle=1" vertex="1" parent="1">
          <mxGeometry x="220" y="-151" width="38" height="31" as="geometry" />
        </mxCell>
        <mxCell id="R5beg2q50ziYNsdWSrL1-30" value="R2" style="text;html=1;align=center;verticalAlign=middle;resizable=0;points=[];autosize=1;strokeColor=none;fillColor=none;fontColor=#000000;fontSize=16;fontStyle=1" vertex="1" parent="1">
          <mxGeometry x="500" y="-151" width="38" height="31" as="geometry" />
        </mxCell>
        <mxCell id="R5beg2q50ziYNsdWSrL1-31" value="R3" style="text;html=1;align=center;verticalAlign=middle;resizable=0;points=[];autosize=1;strokeColor=none;fillColor=none;fontColor=#000000;fontSize=16;fontStyle=1" vertex="1" parent="1">
          <mxGeometry x="863" y="-118.75" width="38" height="31" as="geometry" />
        </mxCell>
        <mxCell id="R5beg2q50ziYNsdWSrL1-32" value="192.168.X.10" style="text;html=1;align=center;verticalAlign=middle;resizable=0;points=[];autosize=1;strokeColor=none;fillColor=none;fontColor=#000000;fontSize=14;fontStyle=1" vertex="1" parent="1">
          <mxGeometry x="646.25" y="-83" width="101" height="29" as="geometry" />
        </mxCell>
        <mxCell id="R5beg2q50ziYNsdWSrL1-33" value="192.168.10.20" style="text;html=1;align=center;verticalAlign=middle;resizable=0;points=[];autosize=1;strokeColor=none;fillColor=none;fontColor=#000000;fontSize=14;fontStyle=1" vertex="1" parent="1">
          <mxGeometry x="-41" y="534.44" width="108" height="29" as="geometry" />
        </mxCell>
        <mxCell id="R5beg2q50ziYNsdWSrL1-34" value="192.168.10.20" style="text;html=1;align=center;verticalAlign=middle;resizable=0;points=[];autosize=1;strokeColor=none;fillColor=none;fontColor=#000000;fontSize=14;fontStyle=1" vertex="1" parent="1">
          <mxGeometry x="198" y="588.44" width="108" height="29" as="geometry" />
        </mxCell>
        <mxCell id="R5beg2q50ziYNsdWSrL1-35" value="192.168.10.20" style="text;html=1;align=center;verticalAlign=middle;resizable=0;points=[];autosize=1;strokeColor=none;fillColor=none;fontColor=#000000;fontSize=14;fontStyle=1" vertex="1" parent="1">
          <mxGeometry x="326" y="747.5600000000001" width="108" height="29" as="geometry" />
        </mxCell>
        <mxCell id="R5beg2q50ziYNsdWSrL1-36" value="192.168.10.20" style="text;html=1;align=center;verticalAlign=middle;resizable=0;points=[];autosize=1;strokeColor=none;fillColor=none;fontColor=#000000;fontSize=14;fontStyle=1" vertex="1" parent="1">
          <mxGeometry x="580" y="582.2" width="108" height="29" as="geometry" />
        </mxCell>
        <mxCell id="R5beg2q50ziYNsdWSrL1-37" value="192.168.10.20" style="text;html=1;align=center;verticalAlign=middle;resizable=0;points=[];autosize=1;strokeColor=none;fillColor=none;fontColor=#000000;fontSize=14;fontStyle=1" vertex="1" parent="1">
          <mxGeometry x="461.5" y="703.86" width="108" height="29" as="geometry" />
        </mxCell>
        <mxCell id="R5beg2q50ziYNsdWSrL1-38" value="" style="sketch=0;points=[[0.015,0.015,0],[0.985,0.015,0],[0.985,0.985,0],[0.015,0.985,0],[0.25,0,0],[0.5,0,0],[0.75,0,0],[1,0.25,0],[1,0.5,0],[1,0.75,0],[0.75,1,0],[0.5,1,0],[0.25,1,0],[0,0.75,0],[0,0.5,0],[0,0.25,0]];verticalLabelPosition=bottom;html=1;verticalAlign=top;aspect=fixed;align=center;pointerEvents=1;shape=mxgraph.cisco19.rect;prIcon=l2_switch;" vertex="1" parent="1">
          <mxGeometry x="347.5" y="467" width="65" height="65" as="geometry" />
        </mxCell>
        <mxCell id="R5beg2q50ziYNsdWSrL1-41" style="edgeStyle=orthogonalEdgeStyle;rounded=0;orthogonalLoop=1;jettySize=auto;html=1;exitX=0.25;exitY=0;exitDx=0;exitDy=0;exitPerimeter=0;entryX=0;entryY=1;entryDx=0;entryDy=0;entryPerimeter=0;curved=1;strokeWidth=3;strokeColor=#000000;endArrow=none;startFill=0;" edge="1" parent="1" source="R5beg2q50ziYNsdWSrL1-38" target="TXLt6qXDOO3QCjM8LoSb-5">
          <mxGeometry relative="1" as="geometry" />
        </mxCell>
        <mxCell id="R5beg2q50ziYNsdWSrL1-42" style="edgeStyle=orthogonalEdgeStyle;rounded=0;orthogonalLoop=1;jettySize=auto;html=1;exitX=0.75;exitY=0;exitDx=0;exitDy=0;exitPerimeter=0;entryX=0.95;entryY=0.94;entryDx=0;entryDy=0;entryPerimeter=0;curved=1;strokeColor=#000000;strokeWidth=3;endArrow=none;startFill=0;" edge="1" parent="1" source="R5beg2q50ziYNsdWSrL1-38" target="TXLt6qXDOO3QCjM8LoSb-4">
          <mxGeometry relative="1" as="geometry" />
        </mxCell>
        <mxCell id="R5beg2q50ziYNsdWSrL1-43" value="192.168.10.80" style="text;html=1;align=center;verticalAlign=middle;resizable=0;points=[];autosize=1;strokeColor=none;fillColor=none;fontColor=#000000;fontSize=14;fontStyle=1" vertex="1" parent="1">
          <mxGeometry x="271" y="529" width="108" height="29" as="geometry" />
        </mxCell>
        <mxCell id="R5beg2q50ziYNsdWSrL1-44" style="edgeStyle=orthogonalEdgeStyle;rounded=0;orthogonalLoop=1;jettySize=auto;html=1;exitX=0.22;exitY=0.185;exitDx=0;exitDy=0;exitPerimeter=0;entryX=0.985;entryY=0.985;entryDx=0;entryDy=0;entryPerimeter=0;strokeColor=#000000;strokeWidth=3;endArrow=none;startFill=0;" edge="1" parent="1" source="TXLt6qXDOO3QCjM8LoSb-81" target="R5beg2q50ziYNsdWSrL1-38">
          <mxGeometry relative="1" as="geometry" />
        </mxCell>
        <mxCell id="R5beg2q50ziYNsdWSrL1-45" style="edgeStyle=orthogonalEdgeStyle;rounded=0;orthogonalLoop=1;jettySize=auto;html=1;exitX=0.5;exitY=0;exitDx=0;exitDy=0;exitPerimeter=0;entryX=0.5;entryY=1;entryDx=0;entryDy=0;entryPerimeter=0;strokeColor=#000000;strokeWidth=3;endArrow=none;startFill=0;" edge="1" parent="1" source="TXLt6qXDOO3QCjM8LoSb-81" target="TXLt6qXDOO3QCjM8LoSb-8">
          <mxGeometry relative="1" as="geometry">
            <Array as="points">
              <mxPoint x="500" y="614" />
              <mxPoint x="500" y="544" />
              <mxPoint x="463" y="544" />
            </Array>
          </mxGeometry>
        </mxCell>
        <mxCell id="R5beg2q50ziYNsdWSrL1-46" style="edgeStyle=orthogonalEdgeStyle;rounded=0;orthogonalLoop=1;jettySize=auto;html=1;exitX=0;exitY=0.4;exitDx=0;exitDy=0;exitPerimeter=0;entryX=0.985;entryY=0.985;entryDx=0;entryDy=0;entryPerimeter=0;strokeColor=#000000;strokeWidth=3;endArrow=none;startFill=0;" edge="1" parent="1" source="TXLt6qXDOO3QCjM8LoSb-82" target="TXLt6qXDOO3QCjM8LoSb-8">
          <mxGeometry relative="1" as="geometry" />
        </mxCell>
        <mxCell id="R5beg2q50ziYNsdWSrL1-47" value="S1" style="text;html=1;align=center;verticalAlign=middle;resizable=0;points=[];autosize=1;strokeColor=none;fillColor=none;fontColor=#000000;fontSize=16;fontStyle=1" vertex="1" parent="1">
          <mxGeometry x="200" y="246" width="38" height="31" as="geometry" />
        </mxCell>
        <mxCell id="R5beg2q50ziYNsdWSrL1-48" value="S2" style="text;html=1;align=center;verticalAlign=middle;resizable=0;points=[];autosize=1;strokeColor=none;fillColor=none;fontColor=#000000;fontSize=16;fontStyle=1" vertex="1" parent="1">
          <mxGeometry x="523" y="246" width="38" height="31" as="geometry" />
        </mxCell>
        <mxCell id="R5beg2q50ziYNsdWSrL1-49" value="L1" style="text;html=1;align=center;verticalAlign=middle;resizable=0;points=[];autosize=1;strokeColor=none;fillColor=none;fontColor=#000000;fontSize=16;fontStyle=1" vertex="1" parent="1">
          <mxGeometry x="200" y="43" width="36" height="31" as="geometry" />
        </mxCell>
        <mxCell id="R5beg2q50ziYNsdWSrL1-50" value="L2" style="text;html=1;align=center;verticalAlign=middle;resizable=0;points=[];autosize=1;strokeColor=none;fillColor=none;fontColor=#000000;fontSize=16;fontStyle=1" vertex="1" parent="1">
          <mxGeometry x="521" y="43" width="36" height="31" as="geometry" />
        </mxCell>
        <mxCell id="R5beg2q50ziYNsdWSrL1-51" value="L3" style="text;html=1;align=center;verticalAlign=middle;resizable=0;points=[];autosize=1;strokeColor=none;fillColor=none;fontColor=#000000;fontSize=16;fontStyle=1" vertex="1" parent="1">
          <mxGeometry x="199" y="433" width="36" height="31" as="geometry" />
        </mxCell>
        <mxCell id="R5beg2q50ziYNsdWSrL1-52" value="L4" style="text;html=1;align=center;verticalAlign=middle;resizable=0;points=[];autosize=1;strokeColor=none;fillColor=none;fontColor=#000000;fontSize=16;fontStyle=1" vertex="1" parent="1">
          <mxGeometry x="520" y="433" width="36" height="31" as="geometry" />
        </mxCell>
        <mxCell id="R5beg2q50ziYNsdWSrL1-53" value="L5" style="text;html=1;align=center;verticalAlign=middle;resizable=0;points=[];autosize=1;strokeColor=none;fillColor=none;fontColor=#000000;fontSize=16;fontStyle=1" vertex="1" parent="1">
          <mxGeometry x="410" y="484" width="36" height="31" as="geometry" />
        </mxCell>
        <mxCell id="R5beg2q50ziYNsdWSrL1-54" value="OTHER CORPS" style="text;html=1;align=center;verticalAlign=middle;resizable=0;points=[];autosize=1;strokeColor=none;fillColor=none;fontColor=#000000;fontSize=22;" vertex="1" parent="1">
          <mxGeometry x="-78" y="-219" width="179" height="38" as="geometry" />
        </mxCell>
      </root>
    </mxGraphModel>
  </diagram>
</mxfile>
